<svg xmlns="http://www.w3.org/2000/svg" viewBox="0 0 581 870.55"><defs><style>.cls-1{fill:#292929;}.cls-2{fill:#c5e1aa;}.cls-2,.cls-3{stroke:#353b97;stroke-miterlimit:10;stroke-width:5px;}.cls-3{fill:#f68a4d;}</style></defs><title>Asset 1</title><g id="Layer_2" data-name="Layer 2"><g id="Layer_1-2" data-name="Layer 1"><g id="_1sdom8.tif" data-name="1sdom8.tif"><path class="cls-1" d="M433.84,584.43c-.67-1.79-1.38-3.56-2-5.34-.27-.72-.37-1.74-1.13-2.13-2.24-1.15-4-3-6.36-4a1.85,1.85,0,0,1-1-2.77c.6-1.35,1.28-2.67,1.91-4a7.88,7.88,0,0,1,.88-1.95,4.1,4.1,0,0,0,1-3c-.06-1.4-.19-2.79-.19-4.19,0-2.76-.12-5.52-.19-8.28,0-.15,0-.37-.05-.46a19.2,19.2,0,0,1-2.22-3.92c-.74-1.31-1.58-2.58-2.26-3.91-.9-1.75-1.95-3.4-2.91-5.11s-2.05-3.48-2.85-5.28a57.24,57.24,0,0,1-2.78-7.61c-.57-2-2.06-3.14-3.33-4.47a18.47,18.47,0,0,0-2.73-2.72c-1.11-.78-1.93-1.89-3.22-2.47-1.83-.83-4.07-1.21-4.63-3.67a.37.37,0,0,0-.05-.11,22.25,22.25,0,0,1-2.37-4.6c-1-1.93-2-3.83-2.89-5.83a6,6,0,0,0-2.16-2.29c-.94-.66-1.83-1.39-2.73-2.11-1.16-.93-2.16-2.22-3.47-2.73a43.4,43.4,0,0,0-6.71-2.53,6.23,6.23,0,0,1-2.5-1.44,30.9,30.9,0,0,1-3.05-3.43,9.18,9.18,0,0,1-2.06-2.39,2.75,2.75,0,0,0-1.52-1.43c-1.16-.55-2.4-.95-3.57-1.48-.82-.36-1.67-.67-2.49-1a19,19,0,0,0-4.17-1.36c-1.92-.35-3.84,0-5.74-.22-1.07-.1-2.43.27-3.17-.53-1.48-1.6-3.07-3.11-4.42-4.82a6.15,6.15,0,0,0-3-2.2c-2.08-.62-4-1.63-6-2.41a13.79,13.79,0,0,0-6.08-1.11c-1.63.13-3.3-.12-4.92.06s-2.06-.66-2.6-1.7c-.34-.68-.61-1.39-.89-2.09a1.74,1.74,0,0,0-.78-.83c-1.86-1.22-4-1.83-5.92-2.93a2.64,2.64,0,0,0-1.38-.33h-9.37c-.48,0-1-.05-1.35.33-1,1.17-2.6,1.57-3.67,2.7-.56.58-1.4,1-2,0a12.58,12.58,0,0,0-2.08-2.39c-1-1-1.9-2.27-3.46-2.75-1.9-.59-3.58-1.84-5.66-2a3.27,3.27,0,0,1-1.29-.21,11.34,11.34,0,0,0-5.45-.93c-2.52,0-4.9,1.06-7.39,1.37a2.15,2.15,0,0,0-1.56,1c-1,1.43-1.54,1.71-3.07,1.21a19.47,19.47,0,0,0-5.42-.69,44.48,44.48,0,0,0-7.2.83,13.81,13.81,0,0,0-4.88,1.3.91.91,0,0,1-1.09-.24c-2.38-2.06-5.42-2-8.25-2.56-.68-.15-1,.53-1.64.47-1.64-.16-3.26.29-4.89.21s-2.92.74-4.24,1.4c-2.14,1.08-4.06,2.61-6.54,2.95a56.08,56.08,0,0,0-10.47,2.79,34.35,34.35,0,0,0-5.17,2.53,36.2,36.2,0,0,1-3.94,2.87c-2,1.06-3.13,2.85-4.53,4.36a21.06,21.06,0,0,0-3,3.35c-.69,1.2-1.89,1.88-2.84,2.8-1.43,1.37-2.91,2.69-4.41,4-1.79,1.53-3.51,3.14-5.38,4.58-1.1.85-2.31,1.52-3.4,2.39s-2.79,1.53-3.73,2.66-1.9,2.06-2.74,3.2a34.38,34.38,0,0,0-3.74,5.4c-1.3,2.7-3,5.22-4.36,7.87-1.2,2.29-2.31,4.64-3.39,7-1.32,2.87-2.68,5.7-4.21,8.46-1,1.85-2,3.75-3.13,5.52-1,1.52-.86,3.34-1.16,5.06a63.29,63.29,0,0,0-1.11,7.13,6.63,6.63,0,0,1-.81,3c-1,1.65-1.39,3.56-2.18,5.3-1.25,2.75-1.44,5.82-2,8.76a15.56,15.56,0,0,0-.13,6.86,25,25,0,0,1,1.15,4.81,11,11,0,0,0,2.69,6.54c1.55,1.9,2.59,4.12,4.15,6a.69.69,0,0,1,0,.9,3.93,3.93,0,0,0-.61,1.52c-.56,1.49-.69,3.13-1.48,4.53a6.82,6.82,0,0,0-.9,2.8c-.25,3-.44,6-.47,8.94,0,3.63.79,7.18,1,10.79a8.27,8.27,0,0,0,.23,2.25c1,2.75,1.31,5.68,2.37,8.42.73,1.9.83,4,1.93,5.79.59,1,1.18,2,1.72,2.94.81,1.46,1.65,2.91,2.49,4.36,1.06,1.82,2.23,3.57,3.38,5.33,1,1.46,2.08,2.83,2.9,4.36a15.19,15.19,0,0,1,2,3.82,68.36,68.36,0,0,0,2,8.28c1.1,3,3.23,5.51,4.47,8.47.09.21.32.23.44.35a21.89,21.89,0,0,0,3.72,2.65c1.45,1,2.64,2.55,4.44,2.84s3.21,1.15,4.94,1.17a2.77,2.77,0,0,1,2.19,1.37,15.37,15.37,0,0,0,2.24,2.25,48.78,48.78,0,0,0,4.53,3.28c2.94,1.91,5.74,4.1,9.08,5.32,3.13,1.14,6.19,2.44,9.23,3.8,2.61,1.16,5.52,1,8.25,1.61a49.5,49.5,0,0,0,5.34.5,3.39,3.39,0,0,1,2.19.76c2.15,2.24,4.92,3.43,7.69,4.62a8.68,8.68,0,0,1,1.46.5c1.89,1.21,4.12,1.62,6.1,2.65,1.79.94,3.93.67,5.86,1.36,3,1.06,6.15.58,9.25.44,1,0,2-.14,3-.12,1.76,0,3-1,4.3-1.94,1.77-1.33,3.6-2.58,5.41-3.85.18-.13.45,0,.69.05,3.44,1.45,6.92,2.68,10.76,2.23a3.26,3.26,0,0,1,1.08,0c2.54.48,4.71-.66,6.71-1.87a9.23,9.23,0,0,1,7.84-1,5.43,5.43,0,0,0,3.27.16c.82-.27,1.73-.27,2.56-.52,1-.3,2.11-.14,3.11-.86a29.1,29.1,0,0,0,3.51-3.32,1.54,1.54,0,0,1,1-.56,12.53,12.53,0,0,1,3.6.56,5,5,0,0,0,3.26.18,19.29,19.29,0,0,1,3.26-.78c2-.29,4-.48,5.32-2.26.85-1.17,2.29-1.63,3.09-2.87.35-.53,1-1.23,1.74-1.08a10.52,10.52,0,0,0,2.86-.05,14.07,14.07,0,0,0,6.26-1.9c1.75-1,3.42-2.17,5.59-1.85,1.51.49,2.75-.46,4.11-.73a12.86,12.86,0,0,0,6.85-3.22,12.79,12.79,0,0,1,3.85-2.46c1.49-.67,3.17-.83,4.75-1.37,2.18-.74,4.5-1,6.72-1.72a10.25,10.25,0,0,0,4.79-2.44,52.61,52.61,0,0,1,4.77-4.68,16.44,16.44,0,0,0,3.8-4.95c1.41-2.48,3-4.89,4.22-7.46a.72.72,0,0,1,.45-.35c2.05-.44,3.86-1.59,5.9-2a7.93,7.93,0,0,0,4.34-2.22c1.58-1.68,3.34-3.19,4.83-4.94a8,8,0,0,0,1.94-2.61c.65-2.15,1.2-4.33,1.9-6.47a10.63,10.63,0,0,0,.6-5.18c-.18-1-.53-2.18.24-3a20.47,20.47,0,0,1,2-2.25,16.5,16.5,0,0,0,2.51-2.72c1.14-1.31,2.22-2.71,3.28-4.1.77-1,2-1.8,2-3.17.1-1.95.24-3.91.25-5.87a8.42,8.42,0,0,1,.56-3.52c.26-.59.8-.91,1.07-1.53a33.33,33.33,0,0,1,2.63-4.75,9.66,9.66,0,0,0,1.58-3.67c.22-1.15.38-2.29.69-3.44C433.85,587.55,434.41,586,433.84,584.43ZM352.9,477.23a62.85,62.85,0,0,1,9.09,3.11c2.94,1.19,5.86,2.43,8.8,3.61a1.52,1.52,0,0,1,.74.74c1.27,2.17,2.5,4.36,3.78,6.52a5,5,0,0,1,.28,2.93c0,.41-.43.51-.81.56-1.49.23-3,.47-4.47.68a3,3,0,0,1-2.36-.94c-1.46-1.24-3.24-2.06-4.58-3.37-1.89-1.84-4.29-1.66-6.51-2.08-1.42-.27-2.69-1.11-4.19-1-.38,0-.38-.33-.38-.62v-1.56h0c-.15-2.55-.29-5.1-.45-7.64C351.81,477.33,351.9,477,352.9,477.23Zm-51.41-8a15.62,15.62,0,0,0,1.77-3.57c.71-2.34,2.52-2.34,4.28-2.87,3-.91,5.87-.29,8.76.44a2.59,2.59,0,0,1,1.57.93c.67.91,1.42,1.76,2.12,2.65.16.21.34.52.17.77s-.42,0-.66,0c-2.95-.27-5.92-.67-8.76.7-.58.28-1.38.1-1.89.6-.26.27-1.17.08-.79.73.29.49.48,1.29,1.37,1.26,1,0,2.09.06,3.12,0,1.53-.15,2.6.81,3.81,1.44a3.53,3.53,0,0,0,.9.48,1.45,1.45,0,0,1,1.17,1.22,14,14,0,0,0,1.07,3.46,5.38,5.38,0,0,1,0,3.39c-.58,3.22-.93,6.46-1.31,9.7a4.59,4.59,0,0,0-.08,2.64,17.33,17.33,0,0,0,1.09-3c.58-2.53,1.4-5,2.05-7.49.47-1.81.75-3.66,1.1-5.5a3.28,3.28,0,0,1,1.84-2.49,1.19,1.19,0,0,0,.65-1.84c-.28-.55-.14-1.2-.6-1.75-.29-.33-.43-1.11.69-1.09,2.72.06,5.43,0,8.14.29a22.47,22.47,0,0,0,3,0c2,0,3.69,1.09,5.45,1.86a10.94,10.94,0,0,0,2,.88c1.53.33,2,1.57,2.4,2.76.51,1.46.87,3,1.25,4.49.41,1.68-.31,3.24-.7,4.8a16.05,16.05,0,0,1-1,3.13c-.25.51-.58.83-1.06.8a2.89,2.89,0,0,0-2,.9c-1.32,1-2.68,2-4,3.05s-1.64,2.43-2.25,3.77a6.19,6.19,0,0,1-1.09,2.1c-.18.17-.21.38,0,.51s.35,0,.48-.21c.95-1.29,2-2.53,3-3.77a13.66,13.66,0,0,1,3.21-3.4,3.57,3.57,0,0,1,1.71-.36c2.28-.1,4.46-.75,6.72-1a7.31,7.31,0,0,1,2.47.06,74.18,74.18,0,0,1,7.72,2.27,5.33,5.33,0,0,1,1.85,1.55c1.22,1.22,2.57,2.28,3.82,3.46a1.61,1.61,0,0,1,.4,1.32c0,2.28,0,4.57,0,6.85a2.12,2.12,0,0,0,.76,1.72,36.19,36.19,0,0,1,3.22,3.86,3.19,3.19,0,0,0,.74.57c.77.56,1.78.66,2.47,1.36a.59.59,0,0,0,.87,0c.18-.22,0-.48-.2-.71-.73-.7-.6-1.84-1.18-2.57-1.71-2.19-1.08-4.58-.72-6.95a9.94,9.94,0,0,1,.4-2.28,2.61,2.61,0,0,1,1.48-1.52c.21-.1.51-.13.63-.3,1-1.42,2.43-1.09,3.5-.43a38.54,38.54,0,0,0,4.71,2.08,8.61,8.61,0,0,1,3.28,3,12.62,12.62,0,0,0,1.7,1.88c-.18-1.64-1.35-2.61-1.89-3.89-1.15-2.71-3.92-3.82-5.73-5.87-.07-.08-.22-.09-.27-.21a25.73,25.73,0,0,1,7.39,1.87,5.43,5.43,0,0,1,2.23,2.38,14.57,14.57,0,0,0,2.44,2.78,12,12,0,0,1,3.16,5.74c.38,1.45,1,2.9,1.41,4.36.32,1,1.42,1.06,2.13,1.58,2.2,1.61,4.52,3.07,6.71,4.71.63.48,1.36.72,2,1.19,1.71,1.29,2.15,3.33,3.15,5,1.1,1.85,2,3.83,3.08,5.71a15.65,15.65,0,0,1,.85,2.3,5.39,5.39,0,0,0-2.53-.41,31.45,31.45,0,0,1-6-.1,1,1,0,0,0-.79.1c-1.2.77-2.68.92-3.79,1.93-.49.44-1,.43-1.51-.48-.81-1.47-1.75-2.9-2.63-4.34-1.43-2.37-3.8-3.71-5.58-5.66-1.62-1.77-3.84-2.4-5.72-3.62-2.19-1.43-4.47-1.4-6.85-1.39s-4.75-.18-7,.64c-1.83.67-3.76.84-5.56,1.49a1.64,1.64,0,0,1-2.06-.71c-.89-1.19-1.69-2.45-2.55-3.67a8.77,8.77,0,0,0-4.37-3.67,16.7,16.7,0,0,1-4.28-2.11,6.63,6.63,0,0,0-3.1-.72,58,58,0,0,0-6.19-.45c-2.36-.08-4.52.83-6.75,1.47-1.93.56-2.77,2-3.72,3.42-.43.65-1.18,1-1.52,1.78-.15.35-.53.15-.72,0-.93-.85-2.19-.93-3.28-1.39-1.29-.56-1.53-.83-1-2.06.93-2.16,1.93-4.28,2.93-6.48a1,1,0,0,0-1,.46c-1.69,1.86-3.7,3.43-5.27,5.35a4.29,4.29,0,0,1-5,1.63,3.71,3.71,0,0,0-1.2,0c-2.41.18-4.78-.34-7.18-.26-.61,0-.82-.24-.58-.81a25.74,25.74,0,0,0,1.71-11.71,15.69,15.69,0,0,1,0-1.68,7.53,7.53,0,0,0-1.79-5.36,9.37,9.37,0,0,1-1-2.17c-1.22-2.75-2.33-5.56-3.73-8.23a46.8,46.8,0,0,0-2.37-4.89,6.24,6.24,0,0,1-1.06-3.61c0-1.6-.66-3.13-.7-4.74A3.1,3.1,0,0,1,301.49,469.25Zm-29.28-8.38a4.46,4.46,0,0,1,2.47-2.05c.87-.22,1.35-1,2.14-1.4a12.86,12.86,0,0,1,3.06-.91c1.29-.24,2.59-.26,3.86-.49a4.67,4.67,0,0,1,3.05.3,14.64,14.64,0,0,0,4.07,1.3,3.7,3.7,0,0,1,2.37,1.54c1,1.31,1.68,2.85,2.95,3.94,1.76,1.51.68,3.1.08,4.65-.34.86-1,1.69-.67,2.66a33.61,33.61,0,0,1,1.22,6.73c.39,2.66,2.24,4.55,3.18,6.88.7,1.73,2.05,3.13,2.5,5.07-3.94-.22-7.66-1.49-11.66-1.38a8.34,8.34,0,0,0,1.54,1.13,40.63,40.63,0,0,1,6.13,3.68,22.83,22.83,0,0,0,3.28,2.28,4.51,4.51,0,0,1,1.61,1.8,14.51,14.51,0,0,1,2.8,7.19,22.55,22.55,0,0,0,.78,2.75,9.08,9.08,0,0,1-.33,4.25,11.75,11.75,0,0,0-.83,3.45c0,1.69-1.12,2.44-2.32,3.06-1.4.73-2,2.19-3.18,3.12a26.08,26.08,0,0,0-2.83,2.92c-.16.17-.39.35-.42.55-.5,2.88-2.28,5.45-2.17,8.45.16,4.3-.18,8.6.35,12.91.36,2.94,1,5.84,1.24,8.8a4.78,4.78,0,0,1-.54,2.54c-.93,1.69-.77,3.65-1.56,5.32s-.55,3.56-1.94,4.85c-1.14,1.06-2.46,1.94-3.54,3.07a13,13,0,0,1-4.57,3c-2.23.92-4.22,2.43-6.68,2.76-2.09.27-4.11.94-6.26.89-1.73,0-3.24-.86-4.91-1.09-2.32-.3-2.33-.45-1.43-2.64,1.27-3.09,2.4-6.25,3.68-9.33.73-1.77,1-3.74,2.16-5.34a.42.42,0,0,0-.1-.66c-.65.32-.47,1.11-.84,1.58-1.3,1.64-2,3.64-3,5.43-.87,1.52-1.63,3.15-2.6,4.6-1.15,1.72-2,3.64-3.29,5.26a1.16,1.16,0,0,1-.6.33,33.11,33.11,0,0,0-6,2.95c-1.89,1.22-3.86,1.18-5.81,1.67-4.45,1.12-9,1.13-13.51,1.17a31.21,31.21,0,0,0-5.07.62c-2.24.39-5.64-1.12-6.74-3.16-.41-.76-1.57-1.19-1-2.41.9-1.83.69-4,1.37-5.81a19.21,19.21,0,0,1,2.52-4.65c.77-1,1.23-2.25,2.08-3.25a4.43,4.43,0,0,1,1.13-1c1.45-.88,2.87-1.83,4.34-2.67a3.89,3.89,0,0,0,1.59-2.69c.52-1.83.72-3.76,1.31-5.56.48-1.51.67-3.06,1.12-4.56.39-1.3,1.68-1.73,2.54-2.58,2.69-2.66,6.35-3.68,9.5-5.57,1.76-1.05,3.67-1.75,5.43-2.78a15.63,15.63,0,0,0,3-2.65c1.25-1.24,2.66-2.3,3.86-3.55a45.29,45.29,0,0,0,4.22-4.84,45.42,45.42,0,0,1,3-4.06c.7-.78.66-2.05.72-3.08.15-2.43,1.07-4.7,1.29-7.11.15-1.71.12-3.42.28-5.13a25.5,25.5,0,0,1,1.13-6.73,36.3,36.3,0,0,0,1.26-5.91c.19-1,.55-1.95.77-2.95a8.41,8.41,0,0,0-.67-5.14c-.45-1.17-.5-2.52-1.07-3.65-1.06-2.06-1.34-4.4-2.47-6.43a3.46,3.46,0,0,1-.23-1.65,34.58,34.58,0,0,0,0-4.44A8.21,8.21,0,0,1,272.21,460.87Zm-53.5,12.68c1.64-1.49,3-3.25,4.47-4.88a10.73,10.73,0,0,1,3.4-2.69,23.75,23.75,0,0,0,3.55-2.06,19.33,19.33,0,0,1,9.29-3.38c.45-.05.86-.5,1.47-.06a9.47,9.47,0,0,0-3.71,2.49c-1.19,1.29-2.34,2.62-3.48,4-1.86,2.2-2.54,5-4.17,7.35a2.73,2.73,0,0,0-.39,1.36c-.18,2.62-.3,5.25-.47,7.87A8.61,8.61,0,0,1,228,486a52.92,52.92,0,0,0-1.51,5.11c1.7-.37,2.1-1.67,2.83-2.87,1.48-2.41,1.92-5.15,3-7.68a6.73,6.73,0,0,0,.31-1.27,40.5,40.5,0,0,1,1.89-6.86,16.91,16.91,0,0,1,7.46-8.33c.6-.36,1.32-.45,2-.76.41-.2,1.34-.23,1.07.68-1.09,3.82-.56,7.72-.53,11.57,0,2.71-1.31,4.9-2.12,7.29-.75,2.21-2.81,3.42-4.28,5.07s-3,3.29-4.28,5.07a22.15,22.15,0,0,1-2.48,3.39c-.21.18-.36.49-.68.41a14.49,14.49,0,0,1-3.53-1,21.56,21.56,0,0,0-3.57-1.1,1,1,0,0,0-.81.08c-1.34.91-2.66,1.87-4.19,3,2.94.79,5.44,2,8.14,2.76.77.21,1.44.74,2.25.9.51.1.51.54.51,1,0,2.45,0,4.89,0,7.34a1,1,0,0,1-.43.91q-3.72,2.85-7.39,5.78c-1.85,1.5-3.81,2.86-5.6,4.45-1.61,1.43-2.35,3.35-3.52,5a32.51,32.51,0,0,1-2.29,3.51,1.92,1.92,0,0,0-.4,1.08c-.19,2.38-.28,4.77-.51,7.14-.15,1.53.13,3.26-.78,4.52-1,1.42-1.56,3.07-2.49,4.52a17.53,17.53,0,0,1-1.42,2.56c-.67.76-.34,2-.48,3a33.31,33.31,0,0,0-.26,4.13c.34-1.94,1.36-3.69,1.57-5.64a9.49,9.49,0,0,1,1.7-3.67c.72-1.23,1.87-2.13,2.43-3.46.1-.24.28-.38.5,0s.4.2.54.44c1.21,2.1,2.85,3.9,4.29,6,.41-1,0-1.86-.09-2.73a61.29,61.29,0,0,0-.78-7.68,10.83,10.83,0,0,1-.33-4.61,38.67,38.67,0,0,0,.74-5.35,3.36,3.36,0,0,1,1.07-1.83c1.09-1.23,2.05-2.56,3-3.87a13.2,13.2,0,0,1,2.52-2.55c2.05-1.56,4.35-2.8,6.24-4.58a2.24,2.24,0,0,1,.73-.35,10.06,10.06,0,0,0,2.78-1.24c.86-.72,1.84-.21,2.62,0,2.21.69,4.51.72,6.72,1.24,1.25.29,2.59.12,3.76.84a.69.69,0,0,0,1.08-.53c.19-.89.39-1.77.54-2.67.08-.48-.06-.8-.67-.89-2.18-.34-4.37-.71-6.54-1.15a22.73,22.73,0,0,0-3.76-.74c-.34,0-.53-.27-.56-.66-.14-1.7-.31-3.4-.46-5.1a3.71,3.71,0,0,0-.33-1.45,2,2,0,0,1,.2-2.08,22.94,22.94,0,0,0,2.35-4.35,13.88,13.88,0,0,1,5.83-6.48c1.76-1.15,3.53-2.3,5.27-3.48a16.7,16.7,0,0,1,6.25-2.5c1.77-.38,3.53-1,5.34-1.33.11,0,.27-.07.3-.15.36-.9-.21-1.7-.32-2.55a.88.88,0,0,0-1.12-.65c-2.11.35-4.27.29-6.34,1a14.44,14.44,0,0,1-3.31.46c-.76.07-.58-.48-.49-.89.3-1.52.71-3,.92-4.56.43-3.14.7-6.31,1.13-9.45a5.16,5.16,0,0,1,2.21-3.91c1.75-1.19,3.68-1.89,5.48-2.88a12.88,12.88,0,0,1,6.23-1.27c1.87-.07,2.83,1.45,4.24,2.17.14.07.1.53.1.81-.12,3.63.26,7.25.44,10.87a25.58,25.58,0,0,0,2,8,22.44,22.44,0,0,0,1.26,3.34,3.12,3.12,0,0,1,.22,2.23,24.73,24.73,0,0,0-.36,4.28,26.82,26.82,0,0,1-1.19,5.64c-.66,2.46-1.56,4.85-2.26,7.31-.46,1.66-1.13,3.28-1.53,5-.06.27-.16.57-.51.57a.6.6,0,0,1-.59-.52c-.2-1.62-1.64-2.63-2-4.16a.71.71,0,0,0-.44-.53c-1.52-.44-2.74-1.55-4.64-2a27.61,27.61,0,0,1,5.67,9.85,3.2,3.2,0,0,1,0,1.71,36.52,36.52,0,0,1-1.2,5.81,14,14,0,0,1-2.18,3.28c-.75,1-1.59,2-2.3,3.09a1.65,1.65,0,0,1-.84.77,45.48,45.48,0,0,0-6,2.85,29.1,29.1,0,0,0-5.92,3.34,62.3,62.3,0,0,1-5.72,4.42c-1.65,1.11-2.43,2.79-3.53,4.29-2.14,2.91-2.9,6.29-3.86,9.65-.31,1.11-.71,2.23-1.11,3.33-.49,1.31-1.9,1.72-2.78,2.68s-2.28,1.88-3.25,3.06c-.61.74-1.64,1.1-2.15,2.08-.82,1.57-1.83,3-2.7,4.56a5.46,5.46,0,0,1-1.15,1.77,1.62,1.62,0,0,0-.5,1.3c0,2.32-.41,4.61-.44,6.92,0,.88-.25,1-1,.73a22.85,22.85,0,0,0-5.52-.67c-2.58-.16-5.17-.08-7.75-.1a4,4,0,0,0-1.89.2,1.67,1.67,0,0,1-2.29-.54c-1.67-2-3.91-3.52-5-6.19-.77-1.93-1.49-3.84-2.09-5.84-.66-2.25-.77-4.56-1.25-6.82a10,10,0,0,1,.19-3.68c.35-2,.36-3.94.61-5.9a8.54,8.54,0,0,1,.82-2,35.47,35.47,0,0,1,3.34-7.4,29.66,29.66,0,0,1,4.3-4.38c.83-.81.67-1.23-.14-1.81-2-1.43-2-1.47-3.68.35-1.35,1.45-2.95,2.66-4,4.39-.24.38-.45.17-.59-.26a16,16,0,0,1-.38-7.6c.27-1.7,1-3.29,1.12-5a5.83,5.83,0,0,1,1.2-2.28c.81-1.39,2-2.59,2.72-4,.54-1,1.31-1.84,1.81-2.86a1.75,1.75,0,0,1,1.14-.89c1.53-.51,3-1.22,4.54-1.68s3-1.13,4.43-1.71a1.64,1.64,0,0,1,0-.23,32,32,0,0,0-4.38,0c-1.72.25-2.43-.77-3.2-1.94a5.51,5.51,0,0,1-.57-5.11,6.7,6.7,0,0,0,.23-1.65,19,19,0,0,1,2.64-7.5,11.35,11.35,0,0,0,.53-1.45c.82-2,2.41-3.57,3.47-5.44.6-1.06,1.66-1.77,2.07-3s1.58-1.11,2.39-1.48a16.85,16.85,0,0,1,9.07-1.71c.56.07,1.42.35,1.47-.82.07-1.73,0-1.79-1.31-2.09s-2.37-.7-3.56-1.07c-.3-.09-.55-.27-.26-.58a10,10,0,0,0,1.19-2.43A2.38,2.38,0,0,1,218.71,473.55ZM189.8,504.69c.26-1.89,0-3.89.54-5.69.65-2.29.18-4.76,1.32-6.92a43.92,43.92,0,0,0,2.22-5.59c.2-.55.82-.95,1.27-1.41,2.26-2.33,3.79-5.19,5.62-7.83a18.31,18.31,0,0,1,4.47-4.53,59.64,59.64,0,0,1,5.91-4.18,28.9,28.9,0,0,1,6.21-2.84c-.55.44-.6,1.12-.93,1.63a25.78,25.78,0,0,0-3.4,8.39c-.08.35-.07.7-.43.93-1.88,1.21-3.35,2.92-5.2,4.19a13.13,13.13,0,0,0-3.71,4.55,25.49,25.49,0,0,1-2.65,4.42,4.89,4.89,0,0,0-.95,2.18,91.6,91.6,0,0,1-2.27,9.24c-.82,2.57-.57,5-.5,7.52.07,2.13-.83,3.15-2.5,4a8.35,8.35,0,0,0-3.61,3.36,37.92,37.92,0,0,1-2.68,3.68,1.73,1.73,0,0,0-.48.94c-.15,2.58-.2,5.18-.52,7.74a17.37,17.37,0,0,0,.89,7,11.32,11.32,0,0,0,.56,1.27c.74,1.75.11,3.29-.35,5a25.12,25.12,0,0,0-1.32,7.48c.12,3.35,0,6.71,0,10.07a18.7,18.7,0,0,0,1.57,6.74,5.78,5.78,0,0,1,.42,1.62c.26,3,2,5.09,3.93,7.19a35,35,0,0,1,3.33,3.65.75.75,0,0,1-.15,1.18,2,2,0,0,1-2.72,0,7.6,7.6,0,0,0-3.05-1.54,10.9,10.9,0,0,1-3.26-2.33c-2.33-1.92-2.67-4.68-3.69-7.2-1.29-3.21-2.46-6.46-3.69-9.68-.86-2.28-1.92-4.49-3-6.68-.93-1.95-2-3.83-2.95-5.78-.7-1.45-.64-3.1-1.1-4.62a23.54,23.54,0,0,1-.38-10.45,20.77,20.77,0,0,1,1.91-6.47,6.55,6.55,0,0,0,.58-2.29c.19-1.9,1.62-3.1,2.49-4.61s2.08-3,3.1-4.53a1.89,1.89,0,0,1,.72-.76c2.23-1,4-2.81,6.29-3.68S189.57,506.33,189.8,504.69Zm-23,17.58c.39-1.95.87-3.9,1.22-5.88.09-.54.17-1.09.26-1.63.35-2,1.65-3.58,2.65-5.29.34-.58.63-1.19,1-1.77a52.6,52.6,0,0,1,5.75-8.82c1.68-1.9,3-4.08,4.91-5.78a13.49,13.49,0,0,1,4.1-2.29c.67-.27,1-1.05,1.86-1.1a35,35,0,0,1-.76,5.27c-.41,3.28-1.73,6.37-2.08,9.68a4.93,4.93,0,0,1-3.43,4.1,8.62,8.62,0,0,0-2.93,2.3c-.83.8-1.64,1.71-2.48,2.49-1.83,1.72-2.49,4.08-3.8,6.07a47.51,47.51,0,0,0-3.11,5.79,22.87,22.87,0,0,0-1.71,6.24c-.24,1.53-.6,3-.9,4.56,0,.23-.21.33-.59.43C166.36,531.8,165.83,527,166.78,522.27ZM187,667.2c-2.46-2.44-5.07-4.66-7-7.62a32.26,32.26,0,0,1-3.37-6.91c-1.06-2.86-1.42-6-3.24-8.57-.83-1.18-1.81-2.26-2.61-3.46-.91-1.37-1.95-2.66-2.94-3.95a38,38,0,0,1-2.49-4.05,28.77,28.77,0,0,1-2.35-4.33,17.69,17.69,0,0,0-1.43-2.42c-.78-1.45-.76-3.06-1.1-4.6-.67-2.93-.82-6-1.55-8.84-1.64-6.59-1.32-13.25-1.35-19.91a3.54,3.54,0,0,1,.42-2c1.54-2.59,2.52-5.47,4.13-8,.2-.33.15-.53-.16-.89-1.41-1.61-2.84-3.21-4.24-4.83-1-1.21-2.35-2.21-3.08-3.66a12.35,12.35,0,0,1-.75-2.37A18.71,18.71,0,0,0,152.7,567c-.79-1.54-.56-3.24-.44-4.9a42,42,0,0,1,.46-4.62,39.33,39.33,0,0,1,1.27-5.11q1-3.21,2.21-6.38a18.58,18.58,0,0,0,.87-6c.07-2.38.3-4.76.47-7.14a1.15,1.15,0,0,1,.11-.46c1.34-2.49,2.68-5,4-7.46.06-.11.26-.14.4-.21.53,1-.24,1.79-.43,2.65-.87,4.16-.55,8.36-.57,12.55a7.3,7.3,0,0,1-1,4,2.18,2.18,0,0,0-.16.45,57.1,57.1,0,0,0-2.81,9,16.66,16.66,0,0,1-.73,2.09,11.08,11.08,0,0,0,.33,6.27,36.78,36.78,0,0,1,.85,5.16c.19,1.26.24,2.54.5,3.77a7.06,7.06,0,0,0,1.44,2.22c.77,1.11,1.6,2.19,2.32,3.33.34-.09.37-.34.25-.47-1-1.14-1.14-2.77-2.09-3.95-.17-.21-.12-.62-.12-.94a33.65,33.65,0,0,0,0-3.48c-.47-4.45.66-8.67,1.8-12.89a3.67,3.67,0,0,1,1.9-2,9,9,0,0,1,5.84-1.26,2.61,2.61,0,0,1,1.91,1.27c.66,1.1,1.72,1.81,2.37,2.9a8.41,8.41,0,0,1,1.12,2c.67,2.84,2,5.44,2.82,8.24.86,3,1.66,6.07,2.74,9,.51,1.4,1.91,2.07,2.56,3.37.27.57.27.52-.24.84-1.83,1.13-3.5.3-5.26-.17a6.45,6.45,0,0,1-4.08-3.31c-1.11-1.87-2.41-3.62-2.92-5.76-.35-1.47-.46-3-.87-4.43-.44-1.6-.93-3.19-1.3-4.77,0,1.78-.05,3.56,0,5.34s.31,3.41.36,5.11a34.6,34.6,0,0,0,.35,3.56,22.11,22.11,0,0,1,.41,2.26c0,.65-.18,1-.88.91a2.21,2.21,0,0,0-2.31,1.33,23.7,23.7,0,0,1-1.81,2.32c-1.19,1.65-1.35,3.61-1.88,5.45-.33,1.17-1.22,2.15-1.14,3.44,1.08-.54,1.28-1.69,1.8-2.62A6.62,6.62,0,0,1,167.3,584a1.64,1.64,0,0,0,.84-.45c1.3-1.48,2.74-.69,4.17-.31a3.44,3.44,0,0,0,1.06.09,4.61,4.61,0,0,1,3,1.28,1.52,1.52,0,0,1,.52,1.6c-.91,3.82-1.52,7.71-2.37,11.54a58.15,58.15,0,0,0-1.65,15.57c.16,3-.2,6,1.26,8.8,1,2,1.68,4.21,2.81,6.19.59,1,.79,2.28,1.41,3.37a4.36,4.36,0,0,1-2.25-1.86,33.36,33.36,0,0,0-2.92-3.22c-2.09-2.43-4.21-4.79-5.48-7.86-.65-1.56-1.52-3.11-2.33-4.64-.68-1.28-.72-2.9-1.18-4.33a63.06,63.06,0,0,1-1.71-6.63,1.11,1.11,0,0,0-.28,1.19c.4,3,.4,6.15,1.39,9,.66,1.94.95,4,1.64,5.87a25,25,0,0,0,2.57,5.84,50.2,50.2,0,0,1,2.79,4.6,6.28,6.28,0,0,0,2.18,2.55c.85.5,1.19,1.5,1.94,2.18a30.31,30.31,0,0,0,3.77,3.48,1.84,1.84,0,0,1,.73,1.33c.31,2.17.76,4.33.91,6.51a23.43,23.43,0,0,0,1.62,7.94,9.13,9.13,0,0,1,.49,2,50.55,50.55,0,0,0,5.26,11.48C187.25,667.42,187.09,667.3,187,667.2Zm35.41,19.27c-2.19-.89-4.45-1.61-6.62-2.55a29.57,29.57,0,0,1-5.18-2.68,5.07,5.07,0,0,0-1.23-.4,37.91,37.91,0,0,1-5.26-2.62,13.6,13.6,0,0,1-4.22-3.72c-.31-.43-.77-.53-1.07-.84-1.33-1.38-2.9-2.49-4.16-4-1-1.17-1.75-2.5-2.72-3.68-1.18-1.43-2.23-3-3.38-4.45-1-1.3-.83-3-1.44-4.49-1-2.3-1.08-4.87-2.1-7.16a1.49,1.49,0,0,1,0-.6q0-4.44,0-8.89c0-.25-.15-.59.16-.76s.59.12.82.31a51.9,51.9,0,0,0,4.91,3.55c.8.51,1.6,1.11,2.38,1.69a1.08,1.08,0,0,1,.54,1c0,.16,0,.32,0,.48-.43,4,.72,7.82,2.06,11.55a3.61,3.61,0,0,1,.32,1c.19,3.73,3.12,5.62,5.27,8.08,1.92,2.2,4.5,3.29,6.85,4.81a20.46,20.46,0,0,0,8.8,3.05,2,2,0,0,1,1.29.89c1.07,1.27,1.7,2.81,2.69,4.13a31.16,31.16,0,0,1,2.08,3.23,8,8,0,0,0,2,2c1,.85,2.14,1.55,3.45,2.47A14.49,14.49,0,0,1,222.4,686.47Zm50.55,7.1c-1.88,1.39-4,2.49-5.83,3.9a5.19,5.19,0,0,1-2.89.56c-2,.09-3.88.34-5.82.47a9.94,9.94,0,0,1-4.63-1.25,11.52,11.52,0,0,0-2-.72,22.62,22.62,0,0,1-6.06-2.82,53.76,53.76,0,0,0-5-2.79,18.72,18.72,0,0,1-4.49-3.4c-2.67-2.42-5.31-4.88-7.87-7.41a16,16,0,0,1-2.57-3.3c-1.12-1.92-2.58-3.58-3.86-5.37a33.08,33.08,0,0,1-4.5-8,18.93,18.93,0,0,0-2.05-4.72,1.9,1.9,0,0,1-.13-1,62.88,62.88,0,0,0-.07-6.73,4.74,4.74,0,0,1,1.67-3.92c.66-.7,1.16-1.48,1.74-2.21.29-.36.51-.57,1-.43a15.93,15.93,0,0,1,3.38,1.1,23.58,23.58,0,0,0,7.76,2.06,8.26,8.26,0,0,0,5-1.87c1.08-.73,2.41-1.13,3.29-2.17.13-.15.47-.18.53-.43.37-1.65,1.34-3.1,1.7-5.12-2.48,1.59-4.67,3-6.81,4.39a5.4,5.4,0,0,1-2.3.5,33.09,33.09,0,0,1-4.88.37,5.2,5.2,0,0,1-2.76-1.06,13,13,0,0,0-2.68-1.24,3.34,3.34,0,0,1-1.67-1.34c-1-1.39-2.15-2.67-3.28-4a8.91,8.91,0,0,1-1.48-2.52c-.89-2.19-2.06-4.24-2.94-6.45-1.28-3.22-3-6.28-4.28-9.51-.85-2.15-1.74-4.28-2.79-6.32-1.33-2.57-2.9-5-4.37-7.52-.92-1.56-1-3.33-1.36-5a33.36,33.36,0,0,1-.93-3.43c-.54,1.15.13,2.25,0,3.36a14.54,14.54,0,0,0,1.36,7c.88,2.28,1.58,4.63,2.38,6.94a53.06,53.06,0,0,0,2.5,5.8,12,12,0,0,1,.77,2.12c.55,1.88,1.55,3.56,2.22,5.39,1.14,3.13,2.46,6.21,3.84,9.24.8,1.77,1.15,3.74,2.31,5.38a2.28,2.28,0,0,1,0,2.53c-.89,1.29-1,2.83-1.53,4.22-1.07,2.7-1.32,5.59-1.86,8.41a7.11,7.11,0,0,0,.24,2.6A32.92,32.92,0,0,0,214.2,668c.57,1.07.8,2.29,1.39,3.37.25.43-.33.38-.61.35a8.79,8.79,0,0,1-5.22-2.34,37.28,37.28,0,0,0-4.14-3.49,4.48,4.48,0,0,1-1.16-1.73c-1.14-2.14-2.35-4.25-3.49-6.39a18.52,18.52,0,0,1-1.5-4.62c-.5-2.19-.68-4.42-1.15-6.6-.17-.8.11-1.08.78-1.27,2.13-.61,4-1.85,6.16-2.42.94-.25.74-1.22,1.11-1.84.71-1.2.91-2.58,1.61-4.15-.74.55-1.34.78-1.57,1.21-.68,1.28-1.85,1.48-3.09,1.66a50.74,50.74,0,0,0-5,1.36,3.48,3.48,0,0,1-2.95-.78,15.68,15.68,0,0,0-1.5-.85,12.47,12.47,0,0,1-4.51-3.11c-.68-.82-1.69-1.36-2.46-2.16-1.88-2-4-3.56-5.27-6.18a37.44,37.44,0,0,0-3.95-6.92c-.8-1-.73-2.42-1-3.66a64,64,0,0,1-1.14-7,18.15,18.15,0,0,1,.74-6.09,21,21,0,0,0,.73-5,19.51,19.51,0,0,1,3.62-10.48,8.89,8.89,0,0,0,1.38-2.44,1.08,1.08,0,0,1,.49-.66c1.92-.82,3.53-2.49,5.88-2.21q3,.36,6,.69a.84.84,0,0,1,.73.51A15.42,15.42,0,0,1,197,589a5.93,5.93,0,0,0,1.4-2.53,8.19,8.19,0,0,1,3.9-4.7c2.59-1.64,5.25-1.56,8-1.44,1.51.06,2.77,1,4.16,1.52,1.61.59,3.22,1.21,4.8,1.87.56.23,1.12.43,1.33,1.23s1.16.46,1.75.74a4.42,4.42,0,0,0,1.57.49c1.38.1,1.43,1,1.24,1.94a36.9,36.9,0,0,0-.37,8.84,21.79,21.79,0,0,0,1.58,6.81,8.37,8.37,0,0,1,.39,1.49,3.19,3.19,0,0,0,1.4,2.22,8.47,8.47,0,0,1,1.74,2c1.61,2.13,3.5,4,5.11,6.16s3,4,4.55,6c1.75,2.21,3.5,4.43,5.11,6.75a46.24,46.24,0,0,1,2.48,4.41c.76,1.38,1.52,2.75,2.2,4.17a1.12,1.12,0,0,1,0,1.24,10.46,10.46,0,0,0-.62,3.35,68.13,68.13,0,0,1-1,7.32c-1.08,4.22-.91,8.5-1.1,12.77,0,.8-.17,1.3-1.17,1.41-2.75.29-5.49.8-8.6.93a7.69,7.69,0,0,0,3.05.8c2.09.25,4,1.24,6.09,1.41.43,0,.55.38.62.77.35,2.06,1.3,4,1.68,6a4.42,4.42,0,0,0,1.3,2.32,48,48,0,0,0,3.5,3.79,1.62,1.62,0,0,1-.09,2.66c-.92.6-1.34,1.62-2.4,2.24,1,.38,1.81-.07,2.61-.12a16.74,16.74,0,0,0,4.59-.65c1.38-.49,2.42.09,3.6.4s2.43.75,3.65,1.12c2.67.81,3.35,3.46,4.94,5.25a10.42,10.42,0,0,0,2.82,2.72C273.47,693,273.34,693.28,273,693.57Zm41.14-5.89c-1.89,2.56-4.74,3.49-7.6,3.78-1.91.2-3.93-.69-5.9-1.1-2.59-.53-4.06-2.56-5.63-4.37-1.1-1.27-1.54-3-2.48-4.38-1.36-2-1.18-4.3-1.73-6.45a12.33,12.33,0,0,0-2.71-5.79c-2.59-2.76-4.93-5.75-7.44-8.58a4.71,4.71,0,0,1-1.48-3.86c.23-2-.35-4.21.32-6.19a46.89,46.89,0,0,0,1.84-7.79,23.78,23.78,0,0,0,.67-5.53,25.11,25.11,0,0,1,.24-2.84c0-1.06.17-2.15-.79-3-.22-.19-.22-.65-.32-1,2.45-.78,4.87-.09,7.28-.08,2.62,0,4.52,1.81,6.71,2.88a4.21,4.21,0,0,0,.66.28c.62.14.81.41.65,1.1-.35,1.45-.27,3-.75,4.42a4.19,4.19,0,0,0,.3,2.76,14.7,14.7,0,0,1,.63,3.85c.28,2.44,1.89,4.13,3.2,6,1.69,2.47,3.36,5,5.12,7.4a14.87,14.87,0,0,1,.86,1.69c.92,1.73,1.84,3.46,2.91,5.12s.9,3.5,1.27,5.28a54.53,54.53,0,0,1,1,8.53c.15,2.86,1.51,5.14,3.17,7.32A.37.37,0,0,1,314.09,687.68Zm81.21-43.09a4.74,4.74,0,0,1-1.43,3.36,1.92,1.92,0,0,0-.31.5,39.83,39.83,0,0,1-3.6,5.75c-1.66,2.36-3.59,4.55-5.08,7-1.69,2.78-4.61,3.48-7,5.11s-5,1.45-7.42,2.28c-1.75.6-3.59.94-5.1,2.27s-3.38,2.38-5,3.66a1.42,1.42,0,0,1-2.05.06c-.1-.1-.36-.08-.42-.18-.36-.66-1.47-.44-1.57-1.09s.38-1.22.6-1.84a3.45,3.45,0,0,0,.12-.46c.28-1.45.55-2.8,2.33-3.31,1.18-.34,2.11-1.31,3.25-1.88a11.12,11.12,0,0,0,3.05-2.47c.78-.84,1.82-1.32,2.56-2.23s2.05-.63,3.07-.66c2.9-.1,5.35-1.36,7.84-2.6a5.12,5.12,0,0,1,1.13-.34c1.83-.46,2.93-1.83,4.1-3.17,1.31-1.5,2.74-2.9,4.1-4.35.17-.17.59-.17.45-.59a9.16,9.16,0,0,0-2.45-1.8c-.31.07-.37.4-.56.59-1.17,1.18-1.81,2.79-3.13,3.82a15.66,15.66,0,0,1-2.21,1.37c-1.33.74-2.7,1.43-4,2.17-1.07.6-2.2.19-3.06.32h-2c-1,0-1.35-.38-.86-1.28a11.31,11.31,0,0,0,.86-3.63,1.13,1.13,0,0,1,.6-1c1.88-.77,2.12-2.67,2.79-4.2,1-2.3,2.23-4.5,3.2-6.8s3.16-2.74,5.08-3.35a11.47,11.47,0,0,0,4-2.46,2.13,2.13,0,0,1,1.9-.6c2,.26,3.81,1.27,5.84,1.31a.51.51,0,0,1,.54.63C395.1,637.87,395.36,641.23,395.3,644.59Zm18.16-13.51c-.55,2.13-.78,4.36-1.8,6.35a4.19,4.19,0,0,1-1.76,2,11.55,11.55,0,0,0-2.39,2.05,6.53,6.53,0,0,1-3,1.75c-1.37.39-2.56,1.24-4,1.62-.56.15-.75,0-.86-.44a48.11,48.11,0,0,1-1.21-7c-.11-1-.39-2-.48-3-.13-1.23.94-1.18,1.61-1.45,1.07-.43,2.39-.09,3.27-1.18,1.08-1.33,2.57-2.3,3.5-3.78s2.53-1.24,3.86-1.73c.11,0,.25,0,.36,0,.64-.24,1.41-1,1.92-.46a4.82,4.82,0,0,1,.73,2.21,4.65,4.65,0,0,0,.59,1.88C414.22,630.37,413.57,630.66,413.46,631.08Zm16.32-38.37a5.84,5.84,0,0,0-.85,1.78c-.31,1.58-1.55,2.57-2.64,3.52-.92.81-1.5,1.94-2.6,2.58-.42.24-.48.9-.49,1.41,0,1-.16,1.92-.19,2.86a37.74,37.74,0,0,1-1.49,7.76,28.72,28.72,0,0,1-1,3.26c-.55,1.45-2,1.87-3,2.76s-1.9,1.45-2.83,2.2-2.3.82-3.45,1.24c-.33.12-.48-.14-.52-.48a7.91,7.91,0,0,1-.2-1.65c.24-1.85-.8-3.57-.5-5.42,0-.22-.18-.49-.34-.88-.36.82-.5,1.58-.79,2.21-.94,2-1.41,4.22-2.43,6.21a4.46,4.46,0,0,0-.4,1.25c-.31,1.77-1.56,2.63-3,3.39a33.56,33.56,0,0,0-4.84,3.08,2.18,2.18,0,0,1-1.33.43h-5.34c.09-1.38,1.27-2.2,1.43-3.43,0-.19.18-.35.26-.54.67-1.55.46-1.88-1.19-2.34-.57-.16-.66,0-1,.44-1,1.58-2.12,3.08-3.22,4.6a3.25,3.25,0,0,1-2,1.17,31.35,31.35,0,0,0-4.54,2c-1.64.67-3.32.34-5,.41-.43,0-.6-.3-.68-.69a23.14,23.14,0,0,1-.73-2.78c0-.32,0-1-.54-.9s-.23.61-.23.93c0,2.6,0,5.21,0,7.81a6.85,6.85,0,0,1-1.57,3.85c-1,1.5-1.86,3.11-2.79,4.66s-1.79,3-3.79,3.71a20.64,20.64,0,0,0-4.19,1.91c-1.55,1-3.54.89-5.21,1.6s-3.33.37-5,.49c-.56,0-.72-.17-.82-.73-.53-3.05-.72-6.15-1.15-9.22,0-.19,0-.4,0-.59s-.36-.29-.52-.45a4.44,4.44,0,0,0-.15.52,37.27,37.27,0,0,1-.78,3.95,72.32,72.32,0,0,0-1.61,7.11c-.35,1.69-.3,3.41-.52,5.11-.34,2.48-.66,5-.87,7.48a22.78,22.78,0,0,0-.26,4.85c.9-2.1,1.68-3.94,2.49-5.76,1.08-2.43,2.33-4.79,3.22-7.3a.57.57,0,0,1,.55-.39,11.77,11.77,0,0,1,4.4.55,2,2,0,0,0,2.22-.21,4.26,4.26,0,0,1,1.08-.48,64.76,64.76,0,0,0,7.79-3.74.67.67,0,0,1,.77-.1,4.28,4.28,0,0,0-1.13,1.93,17,17,0,0,1-2.32,3.36c-1.9,2.69-4.83,4-7.46,5.72-1.48,1-2.09,2.68-2.88,4.23a19.62,19.62,0,0,1-4.55,6.41,13.72,13.72,0,0,1-4.14,3,25.78,25.78,0,0,0-3.87,1.45,2.65,2.65,0,0,1-2.1-.16,12.8,12.8,0,0,0-2.18-.52,2.94,2.94,0,0,1-1.94-1.37c-1-1.4-2.27-2.6-3.22-4.05-.12-.17-.29-.31-.21-.5,1.29-2.76.74-5.76,1.15-8.62.23-1.59.13-3.18.33-4.77.16-1.17-.61-2.2-1.16-3.18-.45-.79-.83-1.61-1.22-2.42a35.07,35.07,0,0,0-4.22-6.6c-.72-.91-1.15-2-1.91-2.93-1.23-1.47-3-2-4.53-3.1a23.94,23.94,0,0,0-3.06-2.15c-.91-.44-1.29,0-1.74.52a4.63,4.63,0,0,0-.39.73c-.28.45-1,.87-.78,1.31s.93.83,1.42,1.23c1.71,1.4,3.67,2.48,5.12,4.22a12.35,12.35,0,0,0,2.3,2,7.39,7.39,0,0,1,2.52,3.6c.57,1.47,1.62,2.69,2,4.25a60.06,60.06,0,0,1,1.63,7.71,4.74,4.74,0,0,1-.78,2.84c-.39.7-.61,1.44-1,2.13a32.71,32.71,0,0,1-3.05,5.21,1,1,0,0,0-.2,1,1.85,1.85,0,0,0,2.77,1.11c1.58-.86,1.54-.83,2.75.49a15.18,15.18,0,0,0,3.77,3.28c1.1.61,1,.67.09,1.6-1.8,1.92-4.24,2.63-6.56,3.27a8.67,8.67,0,0,1-5.77-.19,18.8,18.8,0,0,1-3.23-2.32c-.06,0-.08-.16-.14-.18-2.11-.65-1.62-2.39-1.67-3.92s.39-3.2-.23-4.64c-.9-2-1-4.3-2-6.34-.69-1.49-.87-3.22-1.45-4.78s-1-3.19-1.52-4.74a16.44,16.44,0,0,0-2.39-3.6c-1-1.39-2.13-2.7-3-4.17-.46-.77-1.11-1.35-1.55-2.16a41.78,41.78,0,0,1-3.72-8.52c-.79-2.77-.45-5.67-.29-8.52a1.23,1.23,0,0,1,.55-.9,25.71,25.71,0,0,0,3.87-3.35c.13-.13.44-.13.67-.14.44,0,.89,0,1.32,0a8,8,0,0,1,4.42.92,53.21,53.21,0,0,0,11.85,4c2.44.47,5.19.83,7.54-.38a55.1,55.1,0,0,0,8.06-4.52c1.37-1,2.87-1.94,4.29-2.9a13.55,13.55,0,0,0,3-2.37c1.42-1.68,3.35-1.25,5.28-1.21,2.4,0,3.05,1.33,3.64,3.29.83,2.77,2,5.43,3,8.14a13.69,13.69,0,0,0,1.26,3.31c.22.32.34.47.72.34,1-.35,2-.62,2.91-1,.58-.23.19-.75,0-1-.64-1.23-1.05-2.6-1.74-3.75-.8-1.31-1.09-2.79-1.84-4.09a7.26,7.26,0,0,1-1.17-2.42c-.09-.5-.13-.82.31-1.11,1.92-1.3,3.7-2.89,5.79-3.81,1.6-.7,3.58-.69,5.26-1.35,4.06-1.61,8.25-.6,12.37-.9,1.58-.11,3,.61,4.57.8,1.92.25,3.83.58,5.75.84.6.08.92-.25,1.09-.85.31-1.07.76-2.1,1.06-3.17a4.38,4.38,0,0,1,1.42-2.1l4.48-4a5.32,5.32,0,0,1,2.42-.87c2.31-.64,4.49-1.68,6.88-2.08a37.6,37.6,0,0,1,3.82-.13c.71,0,1.42,0,2.11,0a.62.62,0,0,0-.29-.71,6.25,6.25,0,0,1-.63-.33c-2.28-1.89-4.79-1.82-7.45-1-1.44.45-3,.52-4.4,1.06-2,.78-4,1.53-6,2.12-.6.17-.57.71-.86,1.05-1.35,1.55-2.62,3.17-3.91,4.77a1.6,1.6,0,0,1-1.31.69c-3.27.05-6.53-.21-9.79-.42a52.81,52.81,0,0,0-11.92.14c-1.06.17-2.16,0-3.24.1-1.43.1-2.51,1.09-3.75,1.67a61.08,61.08,0,0,0-6.2,3.14,1.87,1.87,0,0,1-1.16.19,44.2,44.2,0,0,0-9.74.73c-1.32.25-2,1.48-2.89,2.3-1.4,1.22-2.61,2.63-4.35,3.46-2.7,1.28-5.54,2.18-8.33,3.24a2.49,2.49,0,0,1-.93.19c-3.22-.06-6.47.4-9.61-.81-2.09-.8-4.32-1.22-6.39-2-1.46-.57-2.86-1.28-4.36-1.77a3.55,3.55,0,0,0-1.88-.11,22.94,22.94,0,0,1-2.9.59c-1.76.13-2.42,1.69-3.46,2.65-.78.73-1.81,1.29-2.32,2.33-.16.32-.47.18-.75.13-2.19-.43-4.38-.84-6.58-1.26a4.29,4.29,0,0,0-.93-.15c-2.71.11-5.43-.26-8.13.26-.86.16-1.26-.39-1.45-1.1-.75-2.79-2.79-4.75-4.46-6.94-.68-.88-1.3-1.8-2-2.66a7.93,7.93,0,0,0-2.29-1.82c-2.49-1.4-4.72-3.18-7.12-4.72a21.38,21.38,0,0,0-6.59-2.6c-2.29-.58-4.44-1.61-6.77-2-.5-.08-1.23-.78-1.52,0s.43,1.22,1.14,1.54a52.34,52.34,0,0,1,6.5,3.11,8,8,0,0,0,1.76.69c3.21,1.07,5.38,3.48,7.56,5.86,1,1.05,2.15,1.85,3,3,.73,1,1.39,2,2.11,2.92,1.62,2.07,2.63,4.53,4.38,6.5a5.92,5.92,0,0,1,1.05,3.13c.4,2.46,1.4,4.79,1.64,7.29a54.5,54.5,0,0,1-.24,9.21c-.15,2.16,0,4.32-.08,6.48a21.36,21.36,0,0,0,.77,6.51,8.51,8.51,0,0,0,2.49,4.3,22.36,22.36,0,0,1,3.78,3.88,15.55,15.55,0,0,1,2.21,5.61,30.67,30.67,0,0,0,2.23,7.45,26.78,26.78,0,0,0,2.26,4.22c.7,1,.84,2.21,1.64,3.16a3.13,3.13,0,0,0,1,.8c1.22.64,2.44,1.26,3.69,1.9-.49.7-1.24.41-1.83.58a54.93,54.93,0,0,1-6.95,1.67,13.41,13.41,0,0,1-2.85-.17c-1.26-.06-2.63.12-3.75-.46a27.33,27.33,0,0,1-4.78-2.68,2,2,0,0,0-.7-.38,4.73,4.73,0,0,1-2.4-1.87c-1.32-1.88-2.64-3.76-4-5.62a5.13,5.13,0,0,0-3.46-2.47c-1.34-.24-2.71-.64-4.08-.88-1.85-.33-2.89-1.86-4.34-2.78-.15-.1-.27-.36-.49-.47-1.93-1-2.83-2.69-3.71-4.54a40.65,40.65,0,0,0-2.76-5.32c-.83-1.21-.65-2.71-.72-4.06-.12-2-.12-4-.35-6-.51-4.27.3-8.41,1.29-12.47.52-2.17.5-4.45,1.37-6.57.63.23.9.76,1.23,1.28,1.56,2.47,2.87,5.09,4.65,7.42a16.09,16.09,0,0,1,1.41,2.74c.11.21.27.49.53.34s.18-.44,0-.66c-.79-1.34-1-2.91-1.59-4.3-.88-2-1.3-4.19-2.39-6.12a7.17,7.17,0,0,1-.61-1.92c-.44-2.11-2.08-3.32-3.28-4.89-1.37-1.76-3-3.29-4.48-4.9s-2.61-3.09-4.14-4.45a20.12,20.12,0,0,1-2.79-3.74c-.81-1.19-1.77-2.28-2.58-3.45-.91-1.33-1.93-2.58-2.83-3.91-1.5-2.19-3-4.36-4.53-6.55a5.49,5.49,0,0,1-1.11-3.3c0-4.27-.14-8.55.62-12.78a2.21,2.21,0,0,1,.71-1.46c1-.8,1.67-2,2.68-2.79a5.5,5.5,0,0,1,1.83-1.13c2.67-.86,5.37-1.63,8-2.71a10.28,10.28,0,0,1,6.08-.5,80.12,80.12,0,0,1,8,1.72,78.61,78.61,0,0,1,8.82,2.94,23.48,23.48,0,0,1,3.61,2.61c1.51,1.05,3,2.16,4.48,3.21a27.4,27.4,0,0,1,2.66,2.52c1.59,1.49,2.8,3.33,4.49,4.73a8.35,8.35,0,0,1,1.87,2.15c.65,1.09,1.92,1.51,2.58,2.58.08-.92-.57-1.48-1-2.12-1.45-2.22-3-4.38-4.47-6.59a5,5,0,0,1-.6-1.55,16.68,16.68,0,0,0-1-3.48c-.38-.76-.11-1.28.47-2,1-1.16,2-2.36,2.89-3.58a4.15,4.15,0,0,1,2.34-1.59c3.25-.9,6.46-2,9.71-2.9a19.31,19.31,0,0,1,3.58-.19c2.26-.19,4.52-.35,6.79-.46,1.52-.07,2.8,1,4.22,1.43,2.09.68,4.14,1.47,6.22,2.2a4.36,4.36,0,0,1,1.56,1c2,1.88,4.1,3.75,6.16,5.61a9,9,0,0,1,2.06,3.41,68.47,68.47,0,0,0,3.17,6.36c-.09-2.34-1.24-4.46-1.32-6.75a9.47,9.47,0,0,0-2.43-5.5c-1-1.24-1.9-2.53-2.94-3.73a1.16,1.16,0,0,1-.06-1.61c1.14-1.59,2.38-3,4.59-2.92,1.34.06,2.38-.89,3.7-1,2.77-.21,5.56.07,8.32-.15s4.53,1.1,6.43,2.61c1.25,1,2.65,1.81,4,2.71.41.28.62.11.86-.25a14,14,0,0,1,1.48-2c1.53-1.55,3.54-2.45,5.25-3.76s3.55-1,5.39-1.19c.92-.07,1.83-.21,2.74-.26a16,16,0,0,1,6.8,1.15,1.08,1.08,0,0,0,.36,0c1.82-.08,2.39,1.4,3.06,2.61,1.51,2.73,2.87,5.54,4.34,8.29a12.83,12.83,0,0,1,1.39,2.18,16.75,16.75,0,0,0-.83-4,16.49,16.49,0,0,0-2.73-5.56c-1.2-1.8-2.29-3.67-3.56-5.4-.37-.5-1.23-.62-1.86-.91-1-.49-2.08-1-3.11-1.46a8.25,8.25,0,0,0-2.7-.89c-2.42-.25-4.86-.39-7.25-.83-2.73-.5-5.06.79-7.54,1.38a51.12,51.12,0,0,1-9.71,1.81,10.39,10.39,0,0,1-4.93-1.08c-.9-.45-2-.13-2.79-1.12-.39-.52-.76-1.07-1.11-1.62a6.65,6.65,0,0,0-1.16-1.57c-.8-.68-.64-1.59-.57-2.45.2-2.33.63-4.66.62-7a46.53,46.53,0,0,0-.76-6.73,19.9,19.9,0,0,1-.26-2.11c-.18-3.49-2.53-5.92-4-8.76q-1.28-2.37-2.7-4.66a13.86,13.86,0,0,0,1.05,3.93c.59,1.66.85,3.47,1.48,5.14,1.23,3.27.75,6.7,1.19,10a14.9,14.9,0,0,1-1.16,7.11,24,24,0,0,0-.72,3.49,3.49,3.49,0,0,1-1.2,1.94,14,14,0,0,0-2.71,2.78,2.4,2.4,0,0,1-1.44,1c-1.81.51-3.5,1.54-5.39,1.62-1.69.07-3.39-.34-5.09-.37-1.92,0-3.54-1.08-5.35-1.42s-2.67-2.11-3.78-3.39a11.71,11.71,0,0,1-2.33-5.38,6.83,6.83,0,0,1,.47-3.37c.42-1.49.33-3.06.94-4.53.19-.47-.28-1.31-.32-2-.16-3-.14-6.12-1.18-9-1.4-3.84-.91-7.75-1.05-11.65,0-.35-.05-.84.14-1,1.19-1.16,1.53-2.83,2.57-4.08.74-.9,1-2,1.86-3,1.19-1.3,2.46-2.54,3.6-3.91a2,2,0,0,1,1-.63c2.64-.73,5.21-1.77,8-2.08a16.67,16.67,0,0,1,3.53,0c2,.19,4,.42,6.07.44a2.2,2.2,0,0,1,1.33.45,35.25,35.25,0,0,0,5.36,2.93,9.36,9.36,0,0,1,3.23,3.21c1.5,2,3.4,3.59,4.68,5.73.31.52,1.07.62,1.39,1.22a4.12,4.12,0,0,0-.8-2.22c-1.17-1.77-2-3.7-3-5.55-.34-.62-.71-1.22-1.06-1.83s-.18-.8.28-1.21c.88-.78,2-1.26,2.7-2.28a.81.81,0,0,1,.38-.27c3.24-1,6.42-2.29,9.92-1.78a2.43,2.43,0,0,1,1.33.48,10.53,10.53,0,0,0,2.37,1.29c1.71,1,3.67,1.63,5.06,3.08a32.35,32.35,0,0,1,2.57,3,27.05,27.05,0,0,0,2.43,2.7c.74.75,1.43,1.57,2.16,2.33,2,2.08,3.79,4.31,5.88,6.29a4.89,4.89,0,0,0,.47.25,10.46,10.46,0,0,0-1.21-3.87,1.44,1.44,0,0,1-.32-.61c-.11-.8-1-1.64-.6-2.24a6.92,6.92,0,0,1,2.45-2.16c1.67-.92,3.49-1.55,5.17-2.44,2.72-1.42,5.61-.44,8.4-.74.51-.06.6.5.91.64,1.54.67,2.69,1.94,4.19,2.62,1.94.89,2.83,2.65,3.78,4.38.86,1.55,1.73,3.09,2.67,4.58a1.7,1.7,0,0,1,.24.86c.28,2.56.56,5.11.86,7.89,1.21-1.39,2.33-2.65,3.43-3.93.32-.38.54-.63,1.12-.26.73.47,1.8.53,2.33,1.12a12.25,12.25,0,0,1,2.52,3.52c.88,2.25,1.77,4.48,2.66,6.72a4.28,4.28,0,0,1,.2.44c.33,1.21.49,2.47,2.23,2.54,1.25,0,2.42.3,3.55-.66s1.15-1-.1-1.86c-.79-.54-1.74-.73-2.52-1.33-1.22-.93-1.1-2.38-1.53-3.6-.57-1.63-1-3.32-1.39-5a1.68,1.68,0,0,0-1.09-1.25c-1.34-.64-2.51-1.6-3.91-2.16-.52-.2-.14-.65.15-.82,1.84-1.08,3.54-2.37,6-2,1.73.26,3.54-.09,5.19.83.36.2.72.35.85.75.46,1.46,1.29,2.76,1.76,4.23a47.55,47.55,0,0,0,2.68,6,8.07,8.07,0,0,1,.33,1.87c.68,2.82,1.27,5.66,1.95,8.48a2.36,2.36,0,0,1-.32,1.81c-1.29,2.2-2.46,4.44-3.54,6.74a8.11,8.11,0,0,1-3.52,3.29c-1.13.68-2.2,1.45-3.35,2.22.11-2.39.19-4.75.35-7.1.05-.68-.09-1-.79-.94a2.09,2.09,0,0,1-.46-.12c-2.18-.51-2.1-.48-3,1.54-1,2.29-2,4.62-2.88,7-.13.34-.23.57-.65.48a25.11,25.11,0,0,1-4.31-1.06,4.42,4.42,0,0,0-4.38.12,5.59,5.59,0,0,1-1.44.51c-.56.18-1.33.65-1.65.25s.11-1.24.47-1.69c.9-1.12,1-2.56,1.8-3.87a3.5,3.5,0,0,0-1.84.94c-1.87,1.61-4.11,2.68-6,4.26a2.73,2.73,0,0,1-.93.53c-2.62.81-5.13,2.07-8.06,2a16.39,16.39,0,0,0,2.39,1.53c1.56.66,2.91,1.7,4.41,2.48,1.19.64,1.93,2,2.83,3,1.58,1.86,3.16,3.7,4.69,5.6,1.12,1.38,2.16,2.84,3.29,4.33.37-.86-.18-1.54-.41-2.12a86.82,86.82,0,0,1-3.43-9.63c-.17-.66-.09-1,.56-1.33A8.85,8.85,0,0,1,397.4,578c2.34.18,4.73-.37,7,.43a25.58,25.58,0,0,1,6.94,3.21c1.05.77,2.28,1.34,3.31,2.19.5.41.61.07.61-.37a20,20,0,0,0,0-2,3.5,3.5,0,0,1,1.12-2.74c.49-.56,1-1.07,1.56-1.59a1.26,1.26,0,0,1,.92-.49c1.43,0,2.88-.09,4.31,0,.66,0,1.07.64,1.53,1a39.82,39.82,0,0,0,3.74,3.36,4.49,4.49,0,0,1,2.13,3.91c0,1.47.43,2.93.37,4.37A8.21,8.21,0,0,1,429.78,592.71Z"/><path class="cls-1" d="M399.32,554.74c-1.4,2.25-3.62,2.59-5.8,2.65-1.84.05-3.76.42-5.53-.43-2.85-1.36-5.93-2.25-8.62-3.92-2.1-1.31-4.33-2.36-6.45-3.63a.92.92,0,0,1-.51-.72c1.21.52,2.4.27,3.63.56a16.64,16.64,0,0,0,5.68.37c.65-.07.59-.9.63-1.39.2-2.11.38-4.21.41-6.32,0-1.25.39-2.45.29-3.69,0-.25,0-.49.32-.54.53-.07.3.35.34.56a52.94,52.94,0,0,1,.48,6.89,13.06,13.06,0,0,0,.44,3.54,10.2,10.2,0,0,0,4.12,5.52c1.74,1.25,3.54,1.27,5.3,1.52,1.54.22,3.18-.45,4.75-.88C398.94,554.79,399.1,554.78,399.32,554.74Z"/><path class="cls-1" d="M345.16,585.88c.69-.25,1.11.17,1.54.49,1.63,1.22,3.45,2.19,5,3.45s3,1.2,4.63,1.39a3.52,3.52,0,0,1,1.36.4c2,1.28,4.38,1.92,6,3.67a10.65,10.65,0,0,1,2.28,3,6.48,6.48,0,0,1-2.94-.79,10.76,10.76,0,0,0-3.69-1.15,10.16,10.16,0,0,0-4.07.52c-.65.2-.75,1.28-.89,2-.41,2.12-.68,4.28-1,6.45a.88.88,0,0,1-.56-1,55.94,55.94,0,0,0-.49-7.2c-.12-1.56-1.33-2.66-1.82-4.07-.44-1.24-1.23-2.29-1.75-3.47-.35-.78-1.1-1.1-1.64-1.63A11.18,11.18,0,0,0,345.16,585.88Z"/><path class="cls-1" d="M353.23,533.5c1.63.53,2.39,1.94,3.71,2.57a1,1,0,0,1,.34.47c.92,2.09,2,4.11,3.06,6.11a1.79,1.79,0,0,1,.05,1.29c-.92,2.41-.59,5-.92,7.46a2.66,2.66,0,0,0,.9,2.05c1.12,1.37,2.07,2.87,3.05,4.34.36.55.95,1,1.11,1.71a1.73,1.73,0,0,1-1.58-.6c-1.09-1.22-2.8-1.58-3.85-2.85-.34-.42-.89-.08-1.18.17-1.48,1.27-3.25,2.12-4.76,3.34-.51.42-1,.83-1.55,1.23-.2.15-.49.26-.65.05s0-.42.21-.6c.74-.74,1.51-1.44,2.2-2.23,1.34-1.54,1.76-3.57,2.73-5.3,1.37-2.4,1.34-5,1.38-7.58a21.22,21.22,0,0,1,.24-2.86c.31-1.94-1.2-3.07-2-4.53S353.85,535.17,353.23,533.5Z"/><path class="cls-1" d="M305.23,616c-1.45-1.69-1.7-3.65-2.64-5.32-1.07-1.91-1.58-4.13-2.61-6.07s-1.31-3.88-2.44-5.6c-.37-.55-.59-1,.4-1.39s2.09-.71,3.11-1.12c.59-.24.88-.05,1,.6.61,4.42,1.75,8.73,2.42,13.14C304.73,612.05,305.05,613.89,305.23,616Z"/><path class="cls-1" d="M193.75,628.75c-1.54-2-3.62-3.51-4.93-5.63-.67-1.08-.56-2.42-.76-3.65-.26-1.6-.41-3.21-.66-4.82a18.56,18.56,0,0,1,.23-4.15c.19-2.61.1-5.28.9-7.8a69.22,69.22,0,0,0,1.58-7.38c.11-.58.45-.75.94-.51.84.41,1.66.86,2.48,1.31.32.17.22.46.15.74-1,3.88-1,7.87-1.41,11.8-.36,3.18-.2,6.32-.33,9.47-.09,2,.78,3.89,1,5.87C193.18,625.59,193.49,627.16,193.75,628.75Z"/></g><path class="cls-2" d="M290.5,364.05a215.14,215.14,0,0,0-144,55v-343l-72-36v540c0,119.29,96.71,216,216,216s216-96.71,216-216S409.79,364.05,290.5,364.05ZM433.45,589c-.31,1.15-.47,2.29-.69,3.44a9.66,9.66,0,0,1-1.58,3.67,33.33,33.33,0,0,0-2.63,4.75c-.27.62-.81.94-1.07,1.53a8.42,8.42,0,0,0-.56,3.52c0,2-.15,3.92-.25,5.87-.07,1.37-1.27,2.18-2,3.17-1.06,1.39-2.14,2.79-3.28,4.1a16.5,16.5,0,0,1-2.51,2.72,20.47,20.47,0,0,0-2,2.25c-.77.77-.42,1.91-.24,3a10.63,10.63,0,0,1-.6,5.18c-.7,2.14-1.25,4.32-1.9,6.47a8,8,0,0,1-1.94,2.61c-1.49,1.75-3.25,3.26-4.83,4.94a7.93,7.93,0,0,1-4.34,2.22c-2,.44-3.85,1.59-5.9,2a.72.72,0,0,0-.45.35c-1.25,2.57-2.81,5-4.22,7.46a16.44,16.44,0,0,1-3.8,4.95,52.61,52.61,0,0,0-4.77,4.68,10.25,10.25,0,0,1-4.79,2.44c-2.22.69-4.54,1-6.72,1.72-1.58.54-3.26.7-4.75,1.37a12.79,12.79,0,0,0-3.85,2.46,12.86,12.86,0,0,1-6.85,3.22c-1.36.27-2.6,1.22-4.11.73-2.17-.32-3.84.83-5.59,1.85a14.07,14.07,0,0,1-6.26,1.9,10.52,10.52,0,0,1-2.86.05c-.77-.15-1.39.55-1.74,1.08-.8,1.24-2.24,1.7-3.09,2.87-1.3,1.78-3.3,2-5.32,2.26a19.29,19.29,0,0,0-3.26.78,5,5,0,0,1-3.26-.18,12.53,12.53,0,0,0-3.6-.56,1.54,1.54,0,0,0-1,.56,29.1,29.1,0,0,1-3.51,3.32c-1,.72-2.09.56-3.11.86-.83.25-1.74.25-2.56.52a5.43,5.43,0,0,1-3.27-.16,9.23,9.23,0,0,0-7.84,1c-2,1.21-4.17,2.35-6.71,1.87a3.26,3.26,0,0,0-1.08,0c-3.84.45-7.32-.78-10.76-2.23-.24-.09-.51-.18-.69-.05-1.81,1.27-3.64,2.52-5.41,3.85-1.29,1-2.54,2-4.3,1.94-1,0-2,.08-3,.12-3.1.14-6.26.62-9.25-.44-1.93-.69-4.07-.42-5.86-1.36-2-1-4.21-1.44-6.1-2.65a8.68,8.68,0,0,0-1.46-.5c-2.77-1.19-5.54-2.38-7.69-4.62a3.39,3.39,0,0,0-2.19-.76,49.5,49.5,0,0,1-5.34-.5c-2.73-.64-5.64-.45-8.25-1.61-3-1.36-6.1-2.66-9.23-3.8-3.34-1.22-6.14-3.41-9.08-5.32a48.78,48.78,0,0,1-4.53-3.28,15.37,15.37,0,0,1-2.24-2.25,2.77,2.77,0,0,0-2.19-1.37c-1.73,0-3.25-.89-4.94-1.17s-3-1.84-4.44-2.84a21.89,21.89,0,0,1-3.72-2.65c-.12-.12-.35-.14-.44-.35-1.24-3-3.37-5.45-4.47-8.47a68.36,68.36,0,0,1-2-8.28,15.19,15.19,0,0,0-2-3.82c-.82-1.53-1.94-2.9-2.9-4.36-1.15-1.76-2.32-3.51-3.38-5.33-.84-1.45-1.68-2.9-2.49-4.36-.54-1-1.13-2-1.72-2.94-1.1-1.79-1.2-3.89-1.93-5.79-1.06-2.74-1.36-5.67-2.37-8.42a8.27,8.27,0,0,1-.23-2.25c-.22-3.61-1-7.16-1-10.79,0-3,.22-6,.47-8.94a6.82,6.82,0,0,1,.9-2.8c.79-1.4.92-3,1.48-4.53a3.93,3.93,0,0,1,.61-1.52.69.69,0,0,0,0-.9c-1.56-1.86-2.6-4.08-4.15-6a11,11,0,0,1-2.69-6.54,25,25,0,0,0-1.15-4.81,15.56,15.56,0,0,1,.13-6.86c.58-2.94.77-6,2-8.76.79-1.74,1.16-3.65,2.18-5.3a6.63,6.63,0,0,0,.81-3,63.29,63.29,0,0,1,1.11-7.13c.3-1.72.16-3.54,1.16-5.06,1.17-1.77,2.1-3.67,3.13-5.52,1.53-2.76,2.89-5.59,4.21-8.46,1.08-2.34,2.19-4.69,3.39-7,1.4-2.65,3.06-5.17,4.36-7.87a34.38,34.38,0,0,1,3.74-5.4c.84-1.14,1.85-2.12,2.74-3.2s2.54-1.7,3.73-2.66,2.3-1.54,3.4-2.39c1.87-1.44,3.59-3,5.38-4.58,1.5-1.29,3-2.61,4.41-4,1-.92,2.15-1.6,2.84-2.8a21.06,21.06,0,0,1,3-3.35c1.4-1.51,2.54-3.3,4.53-4.36a36.2,36.2,0,0,0,3.94-2.87,34.35,34.35,0,0,1,5.17-2.53,56.08,56.08,0,0,1,10.47-2.79c2.48-.34,4.4-1.87,6.54-2.95,1.32-.66,2.62-1.48,4.24-1.4s3.25-.37,4.89-.21c.6.06,1-.62,1.64-.47,2.83.59,5.87.5,8.25,2.56a.91.91,0,0,0,1.09.24,13.81,13.81,0,0,1,4.88-1.3,44.48,44.48,0,0,1,7.2-.83,19.47,19.47,0,0,1,5.42.69c1.53.5,2.11.22,3.07-1.21a2.15,2.15,0,0,1,1.56-1c2.49-.31,4.87-1.34,7.39-1.37a11.34,11.34,0,0,1,5.45.93,3.27,3.27,0,0,0,1.29.21c2.08.14,3.76,1.39,5.66,2,1.56.48,2.43,1.72,3.46,2.75a12.58,12.58,0,0,1,2.08,2.39c.58,1,1.42.57,2,0,1.07-1.13,2.64-1.53,3.67-2.7.34-.38.87-.33,1.35-.33h9.37a2.64,2.64,0,0,1,1.38.33c1.91,1.1,4.06,1.71,5.92,2.93a1.74,1.74,0,0,1,.78.83c.28.7.55,1.41.89,2.09.54,1,1.13,1.86,2.6,1.7s3.29.07,4.92-.06a13.79,13.79,0,0,1,6.08,1.11c2,.78,3.91,1.79,6,2.41a6.15,6.15,0,0,1,3,2.2c1.35,1.71,2.94,3.22,4.42,4.82.74.8,2.1.43,3.17.53,1.9.2,3.82-.13,5.74.22a19,19,0,0,1,4.17,1.36c.82.35,1.67.66,2.49,1,1.17.53,2.41.93,3.57,1.48a2.75,2.75,0,0,1,1.52,1.43,9.18,9.18,0,0,0,2.06,2.39,30.9,30.9,0,0,0,3.05,3.43,6.23,6.23,0,0,0,2.5,1.44,43.4,43.4,0,0,1,6.71,2.53c1.31.51,2.31,1.8,3.47,2.73.9.72,1.79,1.45,2.73,2.11a6,6,0,0,1,2.16,2.29c.86,2,1.92,3.9,2.89,5.83a22.25,22.25,0,0,0,2.37,4.6.37.37,0,0,1,.05.11c.56,2.46,2.8,2.84,4.63,3.67,1.29.58,2.11,1.69,3.22,2.47a18.47,18.47,0,0,1,2.73,2.72c1.27,1.33,2.76,2.45,3.33,4.47a57.24,57.24,0,0,0,2.78,7.61c.8,1.8,1.87,3.54,2.85,5.28s2,3.36,2.91,5.11c.68,1.33,1.52,2.6,2.26,3.91a19.2,19.2,0,0,0,2.22,3.92c.08.09.05.31.05.46.07,2.76.19,5.52.19,8.28,0,1.4.13,2.79.19,4.19a4.1,4.1,0,0,1-1,3,7.88,7.88,0,0,0-.88,1.95c-.63,1.34-1.31,2.66-1.91,4a1.85,1.85,0,0,0,1,2.77c2.33,1,4.12,2.86,6.36,4,.76.39.86,1.41,1.13,2.13.66,1.78,1.37,3.55,2,5.34C434.41,586,433.85,587.55,433.45,589Z"/><path class="cls-3" d="M578.5,580.05c0,159.06-128.94,288-288,288s-288-128.94-288-288V4.05l72,36v540c0,119.29,96.71,216,216,216s216-96.71,216-216-96.71-216-216-216a215.14,215.14,0,0,0-144,55V330.58a286.71,286.71,0,0,1,144-38.53C449.56,292.05,578.5,421,578.5,580.05Z"/></g></g></svg>